<svg height="170.880075" viewBox="0 0 800 233.960007" width="585.205736" xmlns="http://www.w3.org/2000/svg"><path d="m800.023438 0-386.695313 47.691406-23.53125 167.394532 386.695313-47.667969 23.53125-167.42187525"/><path d="m603.160156 98.242188-12.058594 25.097656 17.492188-2.148438-5.4375-22.949218m151.046875-56.007813-35.5625 51.835937 29.496094 46.078126-34.601563 4.269531-15.015625-25.652344-19.460937 29.875-28.609375 3.511719-8.46875 1.039062-25.601563 3.132813-3.210937-12.636719-33.515625 4.09375-6.746094 13.902344-32.300781 3.964844-2.605469.304687-29.265625 3.589844 6.925781-49.035157-27.046875 37.890626-.53125.074218-17.058593-32.476562-6.875 49.058594-31.316407 3.816406 13.953125-98.898438 31.59375-3.867187 15.617188 32.226562 25.429687-37.28125 35.128907-4.320312-13.066407 92.550781 50.980469-97.050781 31.746094-3.890625 23.984375 85.78125 32.023437-46.707032-28.054687-42.664062 34.601562-4.246094 13.773438 21.886719 16.605469-25.601563 37.050781-4.550781" fill="#bababa"/><path d="m112.199219 128.796875-32.605469 4.296875-23.328125 34.832031-14.761719-29.828125-29.316406 3.867188-12.18359375 92.003906 29.06640575-3.84375 6.015626-45.59375 16.097656 30.023438.507812-.050782 24.769532-35.410156-5.992188 45.597656 29.574219-3.894531z"/><path d="m164.996094 120.484375c-2.324219.007813-4.707032.15625-7.152344.480469-7.445312.980468-14.175781 3.324218-20.191406 7-6.019532 3.675781-11.023438 8.238281-15.039063 13.675781-4.019531 5.433594-6.960937 11.464844-8.796875 18.121094-1.835937 6.652343-2.292968 13.414062-1.390625 20.269531.746094 5.671875 2.503907 10.820312 5.308594 15.441406 2.800781 4.625 6.398437 8.46875 10.765625 11.550782 4.367188 3.085937 9.402344 5.3125 15.089844 6.671874 5.6875 1.363282 11.78125 1.617188 18.300781.761719 7.445313-.980469 14.175781-3.300781 20.191406-6.976562s11.046875-8.238281 15.066407-13.675781c4.019531-5.433594 6.933593-11.488282 8.769531-18.144532 1.835937-6.65625 2.316406-13.417968 1.414062-20.273437-.746093-5.667969-2.527343-10.792969-5.332031-15.417969-2.804688-4.621094-6.398438-8.488281-10.765625-11.574219-4.367187-3.085937-9.375-5.3125-15.066406-6.671875-3.554688-.851562-7.292969-1.253906-11.171875-1.238281m-2.878906 26.714844c1.535156 0 2.980468.171875 4.347656.53125 2.183594.570312 4.054687 1.535156 5.609375 2.878906 1.554687 1.347656 2.832031 2.992187 3.816406 4.929687.988281 1.9375 1.636719 4.078126 1.945313 6.445313.371093 2.796875.253906 5.648437-.351563 8.570313-.605469 2.917968-1.648437 5.601562-3.132813 8.035156-1.492187 2.433594-3.402343 4.519531-5.714843 6.242187-2.3125 1.726563-5.035157 2.800781-8.164063 3.210938-2.707031.355469-5.136718.25-7.277344-.328125-2.144531-.578125-3.980468-1.5625-5.535156-2.90625-1.554687-1.34375-2.832031-2.96875-3.816406-4.902344-.988281-1.9375-1.636719-4.101562-1.945312-6.472656-.371094-2.792969-.253907-5.644532.351562-8.566406.605469-2.921876 1.644531-5.605469 3.132812-8.039063 1.488282-2.433594 3.402344-4.519531 5.714844-6.242187 2.3125-1.722657 5.03125-2.773438 8.164063-3.183594.984375-.132813 1.933593-.203125 2.855469-.203125"/><path d="m265.894531 109.207031c-3.441406.023438-7.21875.296875-11.324219.835938l-34.648437 4.574219-12.183594 92 29.722657-3.917969 3.488281-26.285157 7.378906-.984374 13.246094 24.085937 31.972656-4.195313-16.203125-27.953124c4.222656-1.933594 7.761719-4.171876 10.617188-6.699219 2.851562-2.527344 5.089843-5.296875 6.722656-8.265625 1.632812-2.96875 2.722656-6.082032 3.234375-9.375.515625-3.296875.535156-6.691406.078125-10.160156-.46875-3.554688-1.464844-6.855469-2.984375-9.882813-1.519531-3.03125-3.667969-5.605469-6.445313-7.734375-3.351562-2.574219-7.792968-4.34375-13.34375-5.332031-2.777344-.496094-5.886718-.730469-9.328125-.710938m-6.292969 25.65625c2.691407-.03125 4.757813.488281 6.191407 1.589844 1.4375 1.105469 2.285156 2.585937 2.527343 4.449219.371094 2.792968-.601562 5.359375-2.878906 7.683594-2.277344 2.324218-5.898437 3.816406-10.894531 4.472656l-10.792969 1.417968 2.402344-18.023437 10.539062-1.363281c1.035157-.136719 2.007813-.214844 2.90625-.226563"/><path d="m384.8125 92.910156-75.773438 9.957032-12.183593 92.003906 76.433593-10.0625 3.257813-25.222656-47.210937 6.21875 1.390624-9.984376 43.394532-5.710937 2.90625-22.21875-43.421875 5.710937 1.214843-9.324218 46.605469-6.140625z"/></svg>